<?xml version="1.0" encoding="UTF-8"?>
<svg width="68.882mm" height="18.965mm" version="1.1" viewBox="0 0 68.882 18.965" xmlns="http://www.w3.org/2000/svg" xmlns:cc="http://creativecommons.org/ns#" xmlns:dc="http://purl.org/dc/elements/1.1/" xmlns:rdf="http://www.w3.org/1999/02/22-rdf-syntax-ns#">
 <defs>
  <clipPath id="clipPath30">
   <path d="m0 288h288v-288h-288z"/>
  </clipPath>
  <clipPath id="clipPath82">
   <path d="m157.89 146.91h6.015v-0.5h-6.015z"/>
  </clipPath>
  <clipPath id="clipPath98">
   <path d="m157.89 143.71h6.015v-0.5h-6.015z"/>
  </clipPath>
  <clipPath id="clipPath114">
   <path d="m157.89 140.51h6.015v-0.5h-6.015z"/>
  </clipPath>
 </defs>
 <metadata>
  <rdf:RDF>
   <cc:Work rdf:about="">
    <dc:format>image/svg+xml</dc:format>
    <dc:type rdf:resource="http://purl.org/dc/dcmitype/StillImage"/>
    <dc:title/>
   </cc:Work>
  </rdf:RDF>
 </metadata>
 <g transform="translate(-.30276 -.082822)">
  <g transform="matrix(.35278 0 0 -.35278 -16.282 63.157)" fill="#2c82b9">
   <g clip-path="url(#clipPath30)" fill="#2c82b9">
    <g fill="#2c82b9">
     <g transform="translate(190.68 146.72)">
      <path d="m0 0-6.39-12.983h12.586zm-1.201 2.409h2.634l11.54-23.691h-2.865l-2.983 6.291h-14.522l-3.098-6.291h-2.672z" fill="#2c82b9"/>
     </g>
     <g transform="translate(215.35 139.49)">
      <path d="m0 0c-4.376 0-7.087-2.845-7.087-6.324 0-3.481 2.711-6.325 7.087-6.325 4.222 0 7.475 2.844 7.475 6.325 0 3.479-3.253 6.324-7.475 6.324m7.242-11.344h-0.077c-1.434-2.142-4.493-3.112-7.165-3.112-5.499 0-9.41 3.413-9.41 8.132 0 4.718 3.911 8.131 9.41 8.131 2.672 0 5.731-0.971 7.165-3.113h0.077v12.549h2.323v-25.298h-2.323z" fill="#2c82b9"/>
     </g>
     <g transform="translate(230.65 129.38)">
      <path d="m0 0c0.968-1.641 3.098-2.544 5.189-2.544 2.014 0 4.105 1.071 4.105 2.845 0 4.25-10.611 1.271-10.611 7.16 0 3.012 3.176 4.451 6.119 4.451 2.905 0 5.151-0.937 6.312-2.911l-2.091-1.071c-0.891 1.406-2.13 2.175-4.221 2.175-1.665 0-3.795-0.871-3.795-2.476 0-4.184 10.611-0.938 10.611-7.194 0-3.179-3.059-4.786-6.468-4.786-3.059 0-5.808 1.004-7.203 3.146z" fill="#2c82b9"/>
     </g>
     <g transform="translate(47.011 149.13)">
      <path d="m0 0h18.627v-4.818h-12.586v-4.417h11.89v-4.82h-11.89v-4.818h13.284v-4.818h-19.325z" fill="#2c82b9"/>
     </g>
     <g transform="translate(83.258 137.68)">
      <path d="m0 0h-5.112v-5.421c0-1.74 0.233-3.012 2.75-3.012 0.619 0 1.859 0.068 2.362 0.469v-4.182c-1.278-0.402-2.711-0.502-4.066-0.502-3.873 0-6.855 1.372-6.855 4.919v7.729h-3.718v4.016h3.718v4.819h5.809v-4.819h5.112z" fill="#2c82b9"/>
     </g>
     <g transform="translate(92.01 150.73)">
      <path d="m0 0v-11.243h0.078c0.542 1.271 2.439 2.609 5.266 2.609 5.887 0 6.971-3.345 6.971-7.696v-8.968h-5.809v7.964c0 1.874-0.039 4.283-3.021 4.283-3.021 0-3.485-2.041-3.485-4.149v-8.098h-5.809v25.298z" fill="#2c82b9"/>
     </g>
     <path d="m108.51 141.7h5.81v-16.263h-5.81zm2.905 8.032c1.859 0 3.369-1.306 3.369-2.912s-1.51-2.912-3.369-2.912-3.37 1.306-3.37 2.912 1.511 2.912 3.37 2.912"/>
     <g transform="translate(131.24 136.44)">
      <path d="m0 0c-0.581 0.702-1.665 1.237-2.866 1.237-2.904 0-4.647-1.673-4.647-4.116 0-2.442 1.743-4.115 4.647-4.115 1.278 0 2.208 0.568 2.866 1.238l3.834-3.48c-1.82-1.606-4.492-2.175-6.7-2.175-5.809 0-10.456 3.347-10.456 8.532 0 5.188 4.647 8.533 10.456 8.533 2.208 0 4.88-0.568 6.7-2.175z" fill="#2c82b9"/>
     </g>
     <g transform="translate(147.54 132.56)">
      <path d="m0 0c-1.781 0-5.731-0.133-5.731-2.342 0-1.205 1.471-1.773 2.749-1.773 2.285 0 4.415 1.037 4.415 3.045v1.07zm1.433-5.086h-0.078c-1.277-1.74-3.601-2.442-5.963-2.442-3.525 0-6.7 1.739-6.7 5.018 0 5.623 7.9 5.723 12.741 5.723 0 1.773-1.704 2.911-3.718 2.911-1.898 0-3.485-0.735-4.724-1.94l-3.098 2.744c2.129 1.74 5.228 2.609 8.287 2.609 6.777 0 8.597-2.978 8.597-8.398v-8.266h-5.344z" fill="#2c82b9"/>
     </g>
     <path d="m158.04 150.73h5.81v-25.298h-5.81z"/>
     <g transform="translate(170.23 136.4)">
      <path d="m0 0c6.265 7.043 5.813 15.815 5.808 15.888 0 3.244-2.64 5.883-5.884 5.883-1.839 0-3.482-0.848-4.562-2.173v7.997c1.853-3.089 5.443-5.357 8.85-6.004l0.302-0.011 0.059 0.011c3.407 0.647 6.996 2.915 8.849 6.003v-4.562c5e-3 -0.157 0.241-14.108-13.422-23.032m-1.707 20.135c1.733-0.686 2.889-2.353 2.89-4.274 5e-3 -0.091 0.453-8.674-5.821-15.352v2.471c3.921 6.286 3.575 12.677 3.559 12.908 0 1.421-0.52 2.779-1.436 3.841 0.254 0.162 0.524 0.296 0.808 0.406m-2.931-22.497v1.004c7.669 7.195 7.166 16.888 7.142 17.26 0 1.78-0.809 3.405-2.115 4.5 2.294-0.237 4.096-2.161 4.098-4.556 7e-3 -0.117 0.599-11.434-9.125-18.208m0 18.25c0 1.133 0.431 2.158 1.117 2.957 0.706-0.824 1.12-1.866 1.121-2.998 4e-3 -0.055 0.262-4.912-2.238-10.131v6.858zm3.488 20.489c1.006 0.079 1.824-0.194 2.511-0.835 1.792-1.671 2.095-5.275 2.146-6.517-0.162-1.332-0.833-1.447-1.03-1.448l-1.399 0.117 3.101-4.458 2.298 3.306 0.677 1.036h-1.264c-0.207 0-0.879 0.115-1.04 1.449 0.05 1.242 0.35 4.838 2.144 6.514 0.687 0.641 1.505 0.915 2.512 0.836 1.009-0.078 1.932-0.048 2.773 0.05 0.725-1.3 1.143-2.794 1.143-4.385v-0.08l-0.011-1e-3c0-4.538-4.669-8.242-9.018-9.094-4.35 0.852-9.019 4.556-9.019 9.094h-0.012v0.081c0 1.575 0.408 3.057 1.12 4.347 0.732-0.063 1.517-0.077 2.368-0.012m5.332-9.241c0.202-0.258 0.437-0.452 0.687-0.592l-0.69-0.993-0.683 0.981c0.247 0.141 0.483 0.339 0.686 0.604m0.21 13.935c2.847 0 5.387-1.328 7.043-3.392-0.571-0.035-1.179-0.034-1.826 0.016-1.375 0.1-2.558-0.293-3.517-1.188-0.94-0.878-1.534-2.131-1.913-3.383-0.38 1.252-0.974 2.505-1.914 3.383-0.96 0.895-2.143 1.289-3.517 1.188-0.494-0.038-0.958-0.041-1.408-0.028 1.656 2.071 4.199 3.404 7.052 3.404m10.352-9.029c0 1.66-0.402 3.225-1.1 4.617 3.027 0.682 4.649 2.204 4.741 2.293l-0.919 0.95c-0.02-0.019-1.587-1.482-4.522-2.038-1.865 2.732-5.002 4.53-8.552 4.53-3.577 0-6.734-1.824-8.594-4.589-3.181 0.495-4.886 2.078-4.908 2.097l-0.458-0.475-0.461-0.475c0.095-0.093 1.845-1.749 5.128-2.379-0.671-1.371-1.059-2.905-1.059-4.531v-20.214h-6.735v-1.322h6.735v-1.866h-6.735v-1.323h6.735v-1.865h-6.735v-1.322h6.735v-8.903l0.974 0.603c20.062 8.694 19.736 27.059 19.73 27.223z" fill="#2c82b9"/>
     </g>
     <g transform="translate(169.59 170)">
      <path d="m0 0c0.789 0 1.431-0.642 1.431-1.431s-0.642-1.43-1.431-1.43c-0.79 0-1.432 0.641-1.432 1.43s0.642 1.431 1.432 1.431m0-4.184c1.518 0 2.753 1.236 2.753 2.753 0 1.518-1.235 2.753-2.753 2.753-1.519 0-2.754-1.235-2.754-2.753 0-1.517 1.235-2.753 2.754-2.753" fill="#2c82b9"/>
     </g>
     <g transform="translate(179.66 170)">
      <path d="m0 0c0.789 0 1.431-0.642 1.431-1.431s-0.642-1.43-1.431-1.43-1.431 0.641-1.431 1.43 0.642 1.431 1.431 1.431m0-4.184c1.518 0 2.753 1.236 2.753 2.753 0 1.518-1.235 2.753-2.753 2.753s-2.753-1.235-2.753-2.753c0-1.517 1.235-2.753 2.753-2.753" fill="#2c82b9"/>
     </g>
     <g fill="#2c82b9">
      <g clip-path="url(#clipPath82)" fill="#2c82b9">
       <g transform="translate(163.91 146.41)" fill="#2c82b9">
        <path d="m0 0-6.016 0.5h6.016z" fill="#2c82b9"/>
       </g>
      </g>
     </g>
     <g fill="#2c82b9">
      <g clip-path="url(#clipPath98)" fill="#2c82b9">
       <g transform="translate(163.91 143.21)" fill="#2c82b9">
        <path d="m0 0-6.016 0.5h6.016z" fill="#2c82b9"/>
       </g>
      </g>
     </g>
     <g fill="#2c82b9">
      <g clip-path="url(#clipPath114)" fill="#2c82b9">
       <g transform="translate(163.91 140.01)" fill="#2c82b9">
        <path d="m0 0-6.016 0.5h6.016z" fill="#2c82b9"/>
       </g>
      </g>
     </g>
    </g>
   </g>
  </g>
 </g>
</svg>
